<mxfile host="app.diagrams.net" modified="2023-10-19T13:00:00.714Z" agent="Mozilla/5.0 (X11; Ubuntu; Linux x86_64; rv:109.0) Gecko/20100101 Firefox/119.0" etag="GIhh_ieMcEBaGU0_4zem" version="22.0.5" type="device">
  <diagram name="Page-1" id="tD17L8M0d384xoB9ihxO">
    <mxGraphModel dx="1364" dy="1964" grid="1" gridSize="10" guides="1" tooltips="1" connect="1" arrows="1" fold="1" page="1" pageScale="1" pageWidth="827" pageHeight="1169" math="0" shadow="0">
      <root>
        <mxCell id="0" />
        <mxCell id="1" parent="0" />
        <mxCell id="bNZZNQLA3KYNwP-jMkyL-1" value="" style="rounded=0;whiteSpace=wrap;html=1;fillColor=#ffe6cc;strokeColor=#d79b00;" vertex="1" parent="1">
          <mxGeometry x="240" y="-500" width="900" height="480" as="geometry" />
        </mxCell>
        <mxCell id="oYR7RIJHGrGza35LKqYx-28" style="edgeStyle=orthogonalEdgeStyle;rounded=0;orthogonalLoop=1;jettySize=auto;html=1;" parent="1" source="oYR7RIJHGrGza35LKqYx-3" target="oYR7RIJHGrGza35LKqYx-27" edge="1">
          <mxGeometry relative="1" as="geometry" />
        </mxCell>
        <mxCell id="oYR7RIJHGrGza35LKqYx-3" value="Actor" style="shape=umlActor;verticalLabelPosition=bottom;verticalAlign=top;html=1;outlineConnect=0;" parent="1" vertex="1">
          <mxGeometry x="50" y="410" width="30" height="60" as="geometry" />
        </mxCell>
        <mxCell id="oYR7RIJHGrGza35LKqYx-52" style="edgeStyle=orthogonalEdgeStyle;rounded=0;orthogonalLoop=1;jettySize=auto;html=1;" parent="1" source="oYR7RIJHGrGza35LKqYx-4" target="oYR7RIJHGrGza35LKqYx-36" edge="1">
          <mxGeometry relative="1" as="geometry" />
        </mxCell>
        <mxCell id="bNZZNQLA3KYNwP-jMkyL-59" style="edgeStyle=orthogonalEdgeStyle;rounded=0;orthogonalLoop=1;jettySize=auto;html=1;entryX=0.5;entryY=0;entryDx=0;entryDy=0;" edge="1" parent="1" source="oYR7RIJHGrGza35LKqYx-4" target="bNZZNQLA3KYNwP-jMkyL-28">
          <mxGeometry relative="1" as="geometry">
            <mxPoint x="810" y="570" as="targetPoint" />
          </mxGeometry>
        </mxCell>
        <mxCell id="oYR7RIJHGrGza35LKqYx-4" value="&lt;div&gt;User Service&lt;/div&gt;" style="rounded=1;whiteSpace=wrap;html=1;" parent="1" vertex="1">
          <mxGeometry x="690" y="350" width="120" height="60" as="geometry" />
        </mxCell>
        <mxCell id="bNZZNQLA3KYNwP-jMkyL-36" style="edgeStyle=orthogonalEdgeStyle;rounded=0;orthogonalLoop=1;jettySize=auto;html=1;entryX=0;entryY=0.5;entryDx=0;entryDy=0;" edge="1" parent="1" source="oYR7RIJHGrGza35LKqYx-6" target="bNZZNQLA3KYNwP-jMkyL-23">
          <mxGeometry relative="1" as="geometry" />
        </mxCell>
        <mxCell id="oYR7RIJHGrGza35LKqYx-6" value="&lt;div&gt;CardReference Service&lt;/div&gt;" style="rounded=1;whiteSpace=wrap;html=1;" parent="1" vertex="1">
          <mxGeometry x="770" y="735" width="120" height="60" as="geometry" />
        </mxCell>
        <mxCell id="oYR7RIJHGrGza35LKqYx-27" value="Proxy" style="rounded=0;whiteSpace=wrap;html=1;" parent="1" vertex="1">
          <mxGeometry x="120" y="160" width="40" height="490" as="geometry" />
        </mxCell>
        <mxCell id="bNZZNQLA3KYNwP-jMkyL-6" style="edgeStyle=orthogonalEdgeStyle;rounded=0;orthogonalLoop=1;jettySize=auto;html=1;entryX=0;entryY=0.5;entryDx=0;entryDy=0;" edge="1" parent="1" source="oYR7RIJHGrGza35LKqYx-30" target="bNZZNQLA3KYNwP-jMkyL-2">
          <mxGeometry relative="1" as="geometry" />
        </mxCell>
        <mxCell id="bNZZNQLA3KYNwP-jMkyL-18" style="edgeStyle=orthogonalEdgeStyle;rounded=0;orthogonalLoop=1;jettySize=auto;html=1;entryX=0;entryY=0.5;entryDx=0;entryDy=0;" edge="1" parent="1" source="oYR7RIJHGrGza35LKqYx-30" target="bNZZNQLA3KYNwP-jMkyL-5">
          <mxGeometry relative="1" as="geometry">
            <Array as="points">
              <mxPoint x="580" y="380" />
              <mxPoint x="580" y="490" />
            </Array>
          </mxGeometry>
        </mxCell>
        <mxCell id="bNZZNQLA3KYNwP-jMkyL-43" style="edgeStyle=orthogonalEdgeStyle;rounded=0;orthogonalLoop=1;jettySize=auto;html=1;entryX=0;entryY=0.25;entryDx=0;entryDy=0;" edge="1" parent="1" source="oYR7RIJHGrGza35LKqYx-30" target="bNZZNQLA3KYNwP-jMkyL-41">
          <mxGeometry relative="1" as="geometry">
            <Array as="points">
              <mxPoint x="420" y="380" />
              <mxPoint x="420" y="555" />
            </Array>
          </mxGeometry>
        </mxCell>
        <mxCell id="oYR7RIJHGrGza35LKqYx-30" value="User Controller" style="rounded=1;whiteSpace=wrap;html=1;" parent="1" vertex="1">
          <mxGeometry x="280" y="350" width="120" height="60" as="geometry" />
        </mxCell>
        <mxCell id="bNZZNQLA3KYNwP-jMkyL-32" style="edgeStyle=orthogonalEdgeStyle;rounded=0;orthogonalLoop=1;jettySize=auto;html=1;entryX=0;entryY=0.5;entryDx=0;entryDy=0;" edge="1" parent="1" source="oYR7RIJHGrGza35LKqYx-32" target="bNZZNQLA3KYNwP-jMkyL-4">
          <mxGeometry relative="1" as="geometry" />
        </mxCell>
        <mxCell id="bNZZNQLA3KYNwP-jMkyL-42" style="edgeStyle=orthogonalEdgeStyle;rounded=0;orthogonalLoop=1;jettySize=auto;html=1;entryX=0;entryY=0.75;entryDx=0;entryDy=0;" edge="1" parent="1" source="oYR7RIJHGrGza35LKqYx-32" target="bNZZNQLA3KYNwP-jMkyL-41">
          <mxGeometry relative="1" as="geometry">
            <Array as="points">
              <mxPoint x="400" y="585" />
            </Array>
          </mxGeometry>
        </mxCell>
        <mxCell id="oYR7RIJHGrGza35LKqYx-32" value="&lt;div&gt;Card Controller&lt;br&gt;&lt;/div&gt;" style="rounded=1;whiteSpace=wrap;html=1;" parent="1" vertex="1">
          <mxGeometry x="280" y="655" width="120" height="60" as="geometry" />
        </mxCell>
        <mxCell id="bNZZNQLA3KYNwP-jMkyL-16" style="edgeStyle=orthogonalEdgeStyle;rounded=0;orthogonalLoop=1;jettySize=auto;html=1;entryX=0;entryY=0.5;entryDx=0;entryDy=0;" edge="1" parent="1" source="oYR7RIJHGrGza35LKqYx-36" target="bNZZNQLA3KYNwP-jMkyL-15">
          <mxGeometry relative="1" as="geometry" />
        </mxCell>
        <mxCell id="oYR7RIJHGrGza35LKqYx-36" value="&lt;div&gt;UserModel (DAO)&lt;br&gt;&lt;/div&gt;" style="rounded=1;whiteSpace=wrap;html=1;" parent="1" vertex="1">
          <mxGeometry x="860" y="350" width="120" height="60" as="geometry" />
        </mxCell>
        <mxCell id="bNZZNQLA3KYNwP-jMkyL-39" style="edgeStyle=orthogonalEdgeStyle;rounded=0;orthogonalLoop=1;jettySize=auto;html=1;" edge="1" parent="1" source="oYR7RIJHGrGza35LKqYx-38" target="bNZZNQLA3KYNwP-jMkyL-38">
          <mxGeometry relative="1" as="geometry" />
        </mxCell>
        <mxCell id="oYR7RIJHGrGza35LKqYx-38" value="&lt;div&gt;Card Model&lt;/div&gt;&amp;nbsp;(DAO)" style="rounded=1;whiteSpace=wrap;html=1;" parent="1" vertex="1">
          <mxGeometry x="890" y="655" width="120" height="60" as="geometry" />
        </mxCell>
        <mxCell id="bNZZNQLA3KYNwP-jMkyL-7" style="edgeStyle=orthogonalEdgeStyle;rounded=0;orthogonalLoop=1;jettySize=auto;html=1;" edge="1" parent="1" source="bNZZNQLA3KYNwP-jMkyL-2" target="oYR7RIJHGrGza35LKqYx-4">
          <mxGeometry relative="1" as="geometry" />
        </mxCell>
        <mxCell id="bNZZNQLA3KYNwP-jMkyL-2" value="UserDTO" style="rounded=1;whiteSpace=wrap;html=1;" vertex="1" parent="1">
          <mxGeometry x="470" y="350" width="120" height="60" as="geometry" />
        </mxCell>
        <mxCell id="bNZZNQLA3KYNwP-jMkyL-33" style="edgeStyle=orthogonalEdgeStyle;rounded=0;orthogonalLoop=1;jettySize=auto;html=1;entryX=0;entryY=0.5;entryDx=0;entryDy=0;" edge="1" parent="1" source="bNZZNQLA3KYNwP-jMkyL-4" target="bNZZNQLA3KYNwP-jMkyL-28">
          <mxGeometry relative="1" as="geometry" />
        </mxCell>
        <mxCell id="bNZZNQLA3KYNwP-jMkyL-4" value="&lt;div&gt;CardDTO&lt;br&gt;&lt;/div&gt;" style="rounded=1;whiteSpace=wrap;html=1;" vertex="1" parent="1">
          <mxGeometry x="470" y="655" width="120" height="60" as="geometry" />
        </mxCell>
        <mxCell id="bNZZNQLA3KYNwP-jMkyL-19" style="edgeStyle=orthogonalEdgeStyle;rounded=0;orthogonalLoop=1;jettySize=auto;html=1;" edge="1" parent="1" source="bNZZNQLA3KYNwP-jMkyL-5" target="oYR7RIJHGrGza35LKqYx-4">
          <mxGeometry relative="1" as="geometry">
            <Array as="points">
              <mxPoint x="680" y="435" />
              <mxPoint x="730" y="435" />
            </Array>
          </mxGeometry>
        </mxCell>
        <mxCell id="bNZZNQLA3KYNwP-jMkyL-5" value="&lt;div&gt;AuthDTO&lt;br&gt;&lt;/div&gt;" style="rounded=1;whiteSpace=wrap;html=1;" vertex="1" parent="1">
          <mxGeometry x="620" y="460" width="120" height="60" as="geometry" />
        </mxCell>
        <mxCell id="bNZZNQLA3KYNwP-jMkyL-11" value="" style="group" vertex="1" connectable="0" parent="1">
          <mxGeometry x="1390" y="360" width="100" height="120" as="geometry" />
        </mxCell>
        <mxCell id="bNZZNQLA3KYNwP-jMkyL-8" value="" style="shape=cylinder3;whiteSpace=wrap;html=1;boundedLbl=1;backgroundOutline=1;size=15;" vertex="1" parent="bNZZNQLA3KYNwP-jMkyL-11">
          <mxGeometry y="60" width="100" height="60" as="geometry" />
        </mxCell>
        <mxCell id="bNZZNQLA3KYNwP-jMkyL-9" value="" style="shape=cylinder3;whiteSpace=wrap;html=1;boundedLbl=1;backgroundOutline=1;size=15;" vertex="1" parent="bNZZNQLA3KYNwP-jMkyL-11">
          <mxGeometry y="30" width="100" height="60" as="geometry" />
        </mxCell>
        <mxCell id="bNZZNQLA3KYNwP-jMkyL-10" value="" style="shape=cylinder3;whiteSpace=wrap;html=1;boundedLbl=1;backgroundOutline=1;size=15;" vertex="1" parent="bNZZNQLA3KYNwP-jMkyL-11">
          <mxGeometry width="100" height="60" as="geometry" />
        </mxCell>
        <mxCell id="bNZZNQLA3KYNwP-jMkyL-15" value="UserRepository" style="rounded=1;whiteSpace=wrap;html=1;" vertex="1" parent="1">
          <mxGeometry x="1030" y="350" width="120" height="60" as="geometry" />
        </mxCell>
        <mxCell id="bNZZNQLA3KYNwP-jMkyL-17" style="edgeStyle=orthogonalEdgeStyle;rounded=0;orthogonalLoop=1;jettySize=auto;html=1;" edge="1" parent="1" source="bNZZNQLA3KYNwP-jMkyL-15">
          <mxGeometry relative="1" as="geometry">
            <mxPoint x="1390" y="420" as="targetPoint" />
            <Array as="points">
              <mxPoint x="1090" y="330" />
              <mxPoint x="1250" y="330" />
              <mxPoint x="1250" y="420" />
              <mxPoint x="1390" y="420" />
            </Array>
          </mxGeometry>
        </mxCell>
        <mxCell id="bNZZNQLA3KYNwP-jMkyL-24" value="&amp;lt;&amp;lt;extends&amp;gt;&amp;gt;" style="edgeStyle=orthogonalEdgeStyle;orthogonalLoop=1;jettySize=auto;html=1;entryX=0.5;entryY=1;entryDx=0;entryDy=0;dashed=1;curved=1;" edge="1" parent="1" source="bNZZNQLA3KYNwP-jMkyL-20" target="bNZZNQLA3KYNwP-jMkyL-4">
          <mxGeometry x="0.3333" y="-30" relative="1" as="geometry">
            <mxPoint as="offset" />
          </mxGeometry>
        </mxCell>
        <mxCell id="bNZZNQLA3KYNwP-jMkyL-25" value="&amp;lt;&amp;lt;extends&amp;gt;&amp;gt;" style="edgeStyle=orthogonalEdgeStyle;orthogonalLoop=1;jettySize=auto;html=1;entryX=0.5;entryY=1;entryDx=0;entryDy=0;dashed=1;strokeColor=default;curved=1;" edge="1" parent="1" source="bNZZNQLA3KYNwP-jMkyL-20" target="oYR7RIJHGrGza35LKqYx-38">
          <mxGeometry x="0.3103" y="20" relative="1" as="geometry">
            <mxPoint as="offset" />
          </mxGeometry>
        </mxCell>
        <mxCell id="bNZZNQLA3KYNwP-jMkyL-20" value="&lt;div&gt;CardBasics&lt;br&gt;&lt;/div&gt;" style="rounded=1;whiteSpace=wrap;html=1;" vertex="1" parent="1">
          <mxGeometry x="690" y="845" width="120" height="60" as="geometry" />
        </mxCell>
        <mxCell id="bNZZNQLA3KYNwP-jMkyL-37" style="edgeStyle=orthogonalEdgeStyle;rounded=0;orthogonalLoop=1;jettySize=auto;html=1;entryX=0;entryY=0.5;entryDx=0;entryDy=0;" edge="1" parent="1" source="bNZZNQLA3KYNwP-jMkyL-23" target="bNZZNQLA3KYNwP-jMkyL-29">
          <mxGeometry relative="1" as="geometry" />
        </mxCell>
        <mxCell id="bNZZNQLA3KYNwP-jMkyL-23" value="&lt;div&gt;Card Reference (DAO)&lt;br&gt;&lt;/div&gt;" style="rounded=1;whiteSpace=wrap;html=1;" vertex="1" parent="1">
          <mxGeometry x="1050" y="735" width="120" height="60" as="geometry" />
        </mxCell>
        <mxCell id="bNZZNQLA3KYNwP-jMkyL-34" style="edgeStyle=orthogonalEdgeStyle;rounded=0;orthogonalLoop=1;jettySize=auto;html=1;entryX=0;entryY=0.5;entryDx=0;entryDy=0;" edge="1" parent="1" source="bNZZNQLA3KYNwP-jMkyL-28" target="oYR7RIJHGrGza35LKqYx-38">
          <mxGeometry relative="1" as="geometry" />
        </mxCell>
        <mxCell id="bNZZNQLA3KYNwP-jMkyL-35" style="edgeStyle=orthogonalEdgeStyle;rounded=0;orthogonalLoop=1;jettySize=auto;html=1;entryX=0;entryY=0.5;entryDx=0;entryDy=0;" edge="1" parent="1" source="bNZZNQLA3KYNwP-jMkyL-28" target="oYR7RIJHGrGza35LKqYx-6">
          <mxGeometry relative="1" as="geometry" />
        </mxCell>
        <mxCell id="bNZZNQLA3KYNwP-jMkyL-28" value="&lt;div&gt;CardModel Service&lt;/div&gt;" style="rounded=1;whiteSpace=wrap;html=1;" vertex="1" parent="1">
          <mxGeometry x="690" y="655" width="120" height="60" as="geometry" />
        </mxCell>
        <mxCell id="bNZZNQLA3KYNwP-jMkyL-29" value="&lt;div&gt;Card Reference Repository&lt;br&gt;&lt;/div&gt;" style="rounded=1;whiteSpace=wrap;html=1;" vertex="1" parent="1">
          <mxGeometry x="1260" y="735" width="120" height="60" as="geometry" />
        </mxCell>
        <mxCell id="bNZZNQLA3KYNwP-jMkyL-31" style="edgeStyle=orthogonalEdgeStyle;rounded=0;orthogonalLoop=1;jettySize=auto;html=1;entryX=0.5;entryY=1;entryDx=0;entryDy=0;entryPerimeter=0;" edge="1" parent="1" source="bNZZNQLA3KYNwP-jMkyL-29" target="bNZZNQLA3KYNwP-jMkyL-8">
          <mxGeometry relative="1" as="geometry" />
        </mxCell>
        <mxCell id="bNZZNQLA3KYNwP-jMkyL-38" value="&lt;div&gt;Card Reference Repository&lt;br&gt;&lt;/div&gt;" style="rounded=1;whiteSpace=wrap;html=1;" vertex="1" parent="1">
          <mxGeometry x="1080" y="655" width="120" height="60" as="geometry" />
        </mxCell>
        <mxCell id="bNZZNQLA3KYNwP-jMkyL-40" style="edgeStyle=orthogonalEdgeStyle;rounded=0;orthogonalLoop=1;jettySize=auto;html=1;" edge="1" parent="1" source="bNZZNQLA3KYNwP-jMkyL-38">
          <mxGeometry relative="1" as="geometry">
            <mxPoint x="1390" y="460" as="targetPoint" />
            <Array as="points">
              <mxPoint x="1220" y="685" />
              <mxPoint x="1220" y="460" />
              <mxPoint x="1390" y="460" />
            </Array>
          </mxGeometry>
        </mxCell>
        <mxCell id="bNZZNQLA3KYNwP-jMkyL-45" style="edgeStyle=orthogonalEdgeStyle;rounded=0;orthogonalLoop=1;jettySize=auto;html=1;entryX=0.5;entryY=1;entryDx=0;entryDy=0;" edge="1" parent="1" source="bNZZNQLA3KYNwP-jMkyL-41" target="bNZZNQLA3KYNwP-jMkyL-2">
          <mxGeometry relative="1" as="geometry" />
        </mxCell>
        <mxCell id="bNZZNQLA3KYNwP-jMkyL-46" style="edgeStyle=orthogonalEdgeStyle;rounded=0;orthogonalLoop=1;jettySize=auto;html=1;entryX=0.5;entryY=1;entryDx=0;entryDy=0;" edge="1" parent="1" source="bNZZNQLA3KYNwP-jMkyL-41" target="bNZZNQLA3KYNwP-jMkyL-5">
          <mxGeometry relative="1" as="geometry" />
        </mxCell>
        <mxCell id="bNZZNQLA3KYNwP-jMkyL-41" value="&lt;div&gt;DTOmapper&lt;br&gt;&lt;/div&gt;" style="rounded=1;whiteSpace=wrap;html=1;" vertex="1" parent="1">
          <mxGeometry x="470" y="540" width="120" height="60" as="geometry" />
        </mxCell>
        <mxCell id="bNZZNQLA3KYNwP-jMkyL-57" style="edgeStyle=orthogonalEdgeStyle;rounded=0;orthogonalLoop=1;jettySize=auto;html=1;" edge="1" parent="1" source="bNZZNQLA3KYNwP-jMkyL-48" target="bNZZNQLA3KYNwP-jMkyL-55">
          <mxGeometry relative="1" as="geometry" />
        </mxCell>
        <mxCell id="bNZZNQLA3KYNwP-jMkyL-60" style="edgeStyle=orthogonalEdgeStyle;rounded=0;orthogonalLoop=1;jettySize=auto;html=1;entryX=0.5;entryY=0;entryDx=0;entryDy=0;" edge="1" parent="1" source="bNZZNQLA3KYNwP-jMkyL-48" target="oYR7RIJHGrGza35LKqYx-4">
          <mxGeometry relative="1" as="geometry" />
        </mxCell>
        <mxCell id="bNZZNQLA3KYNwP-jMkyL-64" style="edgeStyle=orthogonalEdgeStyle;rounded=0;orthogonalLoop=1;jettySize=auto;html=1;exitX=0.75;exitY=1;exitDx=0;exitDy=0;entryX=0.75;entryY=0;entryDx=0;entryDy=0;" edge="1" parent="1" source="bNZZNQLA3KYNwP-jMkyL-48" target="bNZZNQLA3KYNwP-jMkyL-28">
          <mxGeometry relative="1" as="geometry" />
        </mxCell>
        <mxCell id="bNZZNQLA3KYNwP-jMkyL-48" value="&lt;div&gt;Store Service&lt;/div&gt;" style="rounded=1;whiteSpace=wrap;html=1;" vertex="1" parent="1">
          <mxGeometry x="690" y="220" width="120" height="60" as="geometry" />
        </mxCell>
        <mxCell id="bNZZNQLA3KYNwP-jMkyL-56" style="edgeStyle=orthogonalEdgeStyle;rounded=0;orthogonalLoop=1;jettySize=auto;html=1;entryX=0;entryY=0.5;entryDx=0;entryDy=0;" edge="1" parent="1" source="bNZZNQLA3KYNwP-jMkyL-50" target="bNZZNQLA3KYNwP-jMkyL-48">
          <mxGeometry relative="1" as="geometry">
            <mxPoint x="610" y="250" as="targetPoint" />
          </mxGeometry>
        </mxCell>
        <mxCell id="bNZZNQLA3KYNwP-jMkyL-50" value="Store Controller" style="rounded=1;whiteSpace=wrap;html=1;" vertex="1" parent="1">
          <mxGeometry x="280" y="220" width="120" height="60" as="geometry" />
        </mxCell>
        <mxCell id="bNZZNQLA3KYNwP-jMkyL-55" value="StoreRepository" style="rounded=1;whiteSpace=wrap;html=1;" vertex="1" parent="1">
          <mxGeometry x="1030" y="220" width="120" height="60" as="geometry" />
        </mxCell>
        <mxCell id="bNZZNQLA3KYNwP-jMkyL-58" style="edgeStyle=orthogonalEdgeStyle;rounded=0;orthogonalLoop=1;jettySize=auto;html=1;entryX=0;entryY=0.5;entryDx=0;entryDy=0;entryPerimeter=0;" edge="1" parent="1" source="bNZZNQLA3KYNwP-jMkyL-55" target="bNZZNQLA3KYNwP-jMkyL-10">
          <mxGeometry relative="1" as="geometry">
            <mxPoint x="1320" y="290" as="targetPoint" />
            <Array as="points">
              <mxPoint x="1290" y="250" />
              <mxPoint x="1290" y="390" />
            </Array>
          </mxGeometry>
        </mxCell>
      </root>
    </mxGraphModel>
  </diagram>
</mxfile>
